<svg id="visual" viewBox="0 0 960 300" width="960" height="300" xmlns="http://www.w3.org/2000/svg" xmlns:xlink="http://www.w3.org/1999/xlink" version="1.1"><rect x="0" y="0" width="960" height="300" fill="#001220"></rect><path d="M0 210L22.8 211.5C45.7 213 91.3 216 137 218C182.7 220 228.3 221 274 209.3C319.7 197.7 365.3 173.3 411.2 168.2C457 163 503 177 548.8 186.3C594.7 195.7 640.3 200.3 686 200.5C731.7 200.7 777.3 196.3 823 189.7C868.7 183 914.3 174 937.2 169.5L960 165L960 0L937.2 0C914.3 0 868.7 0 823 0C777.3 0 731.7 0 686 0C640.3 0 594.7 0 548.8 0C503 0 457 0 411.2 0C365.3 0 319.7 0 274 0C228.3 0 182.7 0 137 0C91.3 0 45.7 0 22.8 0L0 0Z" fill="#fa7268"></path><path d="M0 128L22.8 137C45.7 146 91.3 164 137 163C182.7 162 228.3 142 274 140.2C319.7 138.3 365.3 154.7 411.2 160C457 165.3 503 159.7 548.8 161C594.7 162.3 640.3 170.7 686 167.3C731.7 164 777.3 149 823 145.2C868.7 141.3 914.3 148.7 937.2 152.3L960 156L960 0L937.2 0C914.3 0 868.7 0 823 0C777.3 0 731.7 0 686 0C640.3 0 594.7 0 548.8 0C503 0 457 0 411.2 0C365.3 0 319.7 0 274 0C228.3 0 182.7 0 137 0C91.3 0 45.7 0 22.8 0L0 0Z" fill="#fb6860"></path><path d="M0 122L22.8 121.3C45.7 120.7 91.3 119.3 137 126.3C182.7 133.3 228.3 148.7 274 156.7C319.7 164.7 365.3 165.3 411.2 160.2C457 155 503 144 548.8 141.3C594.7 138.7 640.3 144.3 686 140.7C731.7 137 777.3 124 823 117.5C868.7 111 914.3 111 937.2 111L960 111L960 0L937.2 0C914.3 0 868.7 0 823 0C777.3 0 731.7 0 686 0C640.3 0 594.7 0 548.8 0C503 0 457 0 411.2 0C365.3 0 319.7 0 274 0C228.3 0 182.7 0 137 0C91.3 0 45.7 0 22.8 0L0 0Z" fill="#fc5e59"></path><path d="M0 112L22.8 115C45.7 118 91.3 124 137 124.3C182.7 124.7 228.3 119.3 274 120.5C319.7 121.7 365.3 129.3 411.2 128.8C457 128.3 503 119.7 548.8 116.3C594.7 113 640.3 115 686 111.8C731.7 108.7 777.3 100.3 823 103C868.7 105.7 914.3 119.3 937.2 126.2L960 133L960 0L937.2 0C914.3 0 868.7 0 823 0C777.3 0 731.7 0 686 0C640.3 0 594.7 0 548.8 0C503 0 457 0 411.2 0C365.3 0 319.7 0 274 0C228.3 0 182.7 0 137 0C91.3 0 45.7 0 22.8 0L0 0Z" fill="#fd5352"></path><path d="M0 63L22.8 62.7C45.7 62.3 91.3 61.7 137 65C182.7 68.3 228.3 75.7 274 79.8C319.7 84 365.3 85 411.2 86.7C457 88.3 503 90.7 548.8 94.2C594.7 97.7 640.3 102.3 686 99.2C731.7 96 777.3 85 823 78C868.7 71 914.3 68 937.2 66.5L960 65L960 0L937.2 0C914.3 0 868.7 0 823 0C777.3 0 731.7 0 686 0C640.3 0 594.7 0 548.8 0C503 0 457 0 411.2 0C365.3 0 319.7 0 274 0C228.3 0 182.7 0 137 0C91.3 0 45.7 0 22.8 0L0 0Z" fill="#fe464b"></path><path d="M0 72L22.8 69.8C45.7 67.7 91.3 63.3 137 62.8C182.7 62.3 228.3 65.7 274 68.8C319.7 72 365.3 75 411.2 69.8C457 64.7 503 51.3 548.8 49.5C594.7 47.7 640.3 57.3 686 63C731.7 68.7 777.3 70.3 823 70.3C868.7 70.3 914.3 68.7 937.2 67.8L960 67L960 0L937.2 0C914.3 0 868.7 0 823 0C777.3 0 731.7 0 686 0C640.3 0 594.7 0 548.8 0C503 0 457 0 411.2 0C365.3 0 319.7 0 274 0C228.3 0 182.7 0 137 0C91.3 0 45.7 0 22.8 0L0 0Z" fill="#fe3744"></path><path d="M0 28L22.8 28.2C45.7 28.3 91.3 28.7 137 28C182.7 27.3 228.3 25.7 274 25.7C319.7 25.7 365.3 27.3 411.2 26.8C457 26.3 503 23.7 548.8 26.2C594.7 28.7 640.3 36.3 686 37.8C731.7 39.3 777.3 34.7 823 34.8C868.7 35 914.3 40 937.2 42.5L960 45L960 0L937.2 0C914.3 0 868.7 0 823 0C777.3 0 731.7 0 686 0C640.3 0 594.7 0 548.8 0C503 0 457 0 411.2 0C365.3 0 319.7 0 274 0C228.3 0 182.7 0 137 0C91.3 0 45.7 0 22.8 0L0 0Z" fill="#ff213e"></path></svg>