<?xml version="1.0" standalone="no"?>
<!DOCTYPE svg PUBLIC "-//W3C//DTD SVG 20010904//EN"
 "http://www.w3.org/TR/2001/REC-SVG-20010904/DTD/svg10.dtd">
<svg version="1.0" xmlns="http://www.w3.org/2000/svg"
 width="1200.000000pt" height="1200.000000pt" viewBox="0 0 1200.000000 1200.000000"
 preserveAspectRatio="xMidYMid meet">

<g transform="translate(0.000000,1200.000000) scale(0.100000,-0.100000)"
fill="#000000" stroke="none">
<path d="M0 6000 l0 -6000 6000 0 6000 0 0 6000 0 6000 -6000 0 -6000 0 0
-6000z m6223 2944 c307 -178 629 -364 867 -501 118 -69 301 -174 407 -235
l191 -110 0 -967 c0 -532 -3 -972 -6 -977 -4 -6 -74 -49 -157 -96 -82 -47
-253 -145 -380 -219 -1225 -708 -1142 -662 -1167 -648 -27 14 -376 215 -943
544 -220 127 -473 273 -561 324 l-162 94 0 972 c1 964 1 972 21 984 11 7 110
65 221 128 111 64 323 187 471 273 149 86 383 222 520 301 138 78 295 169 350
201 55 32 106 56 113 53 7 -2 103 -57 215 -121z"/>
<path d="M5895 8845 c-161 -94 -532 -308 -1180 -683 -110 -63 -212 -123 -227
-131 l-28 -16 0 -890 0 -890 198 -114 c554 -321 723 -418 892 -516 362 -210
442 -255 451 -255 5 0 78 40 162 89 224 130 1095 634 1314 760 l63 36 0 890 0
890 -372 215 c-392 227 -559 323 -932 538 -125 73 -233 132 -240 131 -6 0 -51
-25 -101 -54z m251 -970 c74 -42 146 -80 159 -85 23 -9 23 -12 18 -82 l-5 -73
153 -84 c85 -46 166 -93 181 -103 l28 -19 2 -166 3 -166 71 -35 70 -36 -1
-176 c0 -96 -4 -180 -8 -187 -10 -16 -295 -173 -315 -173 -9 0 -31 9 -49 19
l-31 20 -206 -115 c-113 -63 -210 -114 -216 -114 -5 0 -102 52 -216 115 l-207
115 -32 -20 c-44 -27 -53 -26 -132 18 -37 22 -99 56 -138 77 -108 58 -101 40
-99 232 1 92 2 173 3 178 0 6 33 28 71 49 l70 37 0 164 0 164 28 19 c15 10 96
57 180 103 l152 84 0 71 0 71 113 63 c61 35 130 73 152 86 22 13 46 23 53 24
7 0 74 -34 148 -75z"/>
<path d="M5901 7825 c-51 -30 -97 -57 -102 -62 -6 -6 34 -33 95 -67 l105 -57
106 57 c58 30 105 59 105 62 0 6 -193 114 -210 118 -3 1 -47 -22 -99 -51z"/>
<path d="M5747 7692 c-2 -4 -3 -58 -3 -121 l1 -114 105 -58 c58 -32 109 -59
113 -59 4 0 6 54 5 121 l-3 121 -107 58 c-60 32 -109 55 -111 52z"/>
<path d="M6138 7638 l-108 -60 0 -120 c0 -140 -13 -134 130 -53 l96 54 -1 115
c0 63 -2 117 -5 119 -3 2 -53 -23 -112 -55z"/>
<path d="M5525 7471 l-140 -78 -1 -114 c0 -63 2 -119 4 -126 2 -7 18 -3 45 13
23 13 51 24 61 24 11 0 81 -34 156 -75 75 -41 142 -75 148 -75 6 0 14 -5 17
-10 8 -12 7 -344 -1 -363 -2 -6 -38 -30 -79 -52 -41 -22 -75 -43 -75 -47 0 -3
77 -49 170 -101 l171 -94 167 92 c91 51 168 97 169 102 2 4 -31 26 -72 48 -47
25 -77 48 -81 60 -2 11 -3 94 -2 184 l3 163 150 84 c83 46 159 84 169 84 11 0
38 -11 62 -25 24 -14 45 -22 47 -18 2 5 3 62 3 127 l-1 119 -140 78 c-77 43
-143 79 -147 79 -5 0 -8 -29 -8 -64 0 -76 11 -66 -187 -175 l-132 -73 -123 68
c-211 116 -198 104 -198 179 0 36 -3 65 -7 65 -5 0 -71 -36 -148 -79z"/>
<path d="M5391 7066 c-52 -29 -96 -57 -98 -63 -2 -5 34 -29 79 -53 46 -24 92
-49 102 -56 16 -11 31 -6 115 38 53 28 102 56 109 61 9 8 -14 25 -90 68 -57
32 -107 58 -113 58 -5 -1 -53 -25 -104 -53z"/>
<path d="M6392 7061 l-103 -59 58 -32 c32 -18 81 -45 108 -60 l50 -28 108 60
109 60 -107 59 c-58 33 -109 59 -113 59 -4 -1 -53 -27 -110 -59z"/>
<path d="M5240 6821 l0 -119 108 -59 107 -60 3 121 c2 106 1 121 -15 130 -38
23 -194 106 -198 106 -3 0 -5 -54 -5 -119z"/>
<path d="M5633 6882 l-103 -56 0 -123 0 -124 23 12 c12 6 61 34 110 61 l87 50
0 119 c0 66 -3 119 -7 118 -5 -1 -54 -26 -110 -57z"/>
<path d="M6250 6821 l0 -120 43 -24 c23 -13 72 -41 110 -61 l67 -37 0 124 0
123 -101 54 c-56 30 -105 57 -110 58 -5 2 -9 -51 -9 -117z"/>
<path d="M6643 6882 l-103 -57 0 -123 0 -124 43 25 c23 14 72 41 110 62 l67
37 0 119 c0 65 -3 119 -7 119 -5 -1 -54 -27 -110 -58z"/>
</g>
</svg>
